<svg t="1586781866533" class="icon" viewBox="0 0 1024 1024" version="1.1" xmlns="http://www.w3.org/2000/svg" p-id="8207" width="128" height="128"><path d="M888 792H200V168c0-4.4-3.6-8-8-8h-56c-4.4 0-8 3.6-8 8v688c0 4.4 3.6 8 8 8h752c4.4 0 8-3.6 8-8v-56c0-4.4-3.6-8-8-8z" p-id="8208"></path><path d="M352 604m-64 0a64 64 0 1 0 128 0 64 64 0 1 0-128 0Z" p-id="8209"></path><path d="M454 380m-48 0a48 48 0 1 0 96 0 48 48 0 1 0-96 0Z" p-id="8210"></path><path d="M660 608m-96 0a96 96 0 1 0 192 0 96 96 0 1 0-192 0Z" p-id="8211"></path><path d="M768 294m-56 0a56 56 0 1 0 112 0 56 56 0 1 0-112 0Z" p-id="8212"></path></svg>